<svg id="Calque_1" data-name="Calque 1" xmlns="http://www.w3.org/2000/svg" viewBox="0 0 193.73 25.68"><defs><style>.cls-1{fill:#fe1109;}</style></defs><title>logo_vanden_borre</title><path class="cls-1" d="M184.23,266.18c-2.58,0-2-3.6-2-3.6a3.22,3.22,0,0,1,2.4-2.63,12.62,12.62,0,0,0,2.14-.88l0,3.82s.06,3.29-2.53,3.29m7.36-.47-.07-9.16c-.17-4.77-3.42-5.78-6.87-5.78a9.84,9.84,0,0,0-5.72,2.08.4.4,0,0,0-.07.57l.72.89a.41.41,0,0,0,.56.07,5.7,5.7,0,0,1,3.46-1,3,3,0,0,1,3.07,3.44c-.11,1.46-3.69,2-3.92,2h0c-5.18,1-5.44,3.83-5.44,5.47s1.14,4.17,4.84,4.17,4.66-2.4,4.66-2.4c1.58,3.8,5.38,2.12,6.34,1.63a.42.42,0,0,0,.22-.36v-.17a.4.4,0,0,0-.38-.39c-.52,0-1.38-.23-1.38-1.09" transform="translate(-158.78 -242.83)"/><path class="cls-1" d="M205.19,250.78a5.79,5.79,0,0,0-5.12,3.05v-2.2a.4.4,0,0,0-.4-.4h-4.1a.4.4,0,0,0-.41.4v16a.4.4,0,0,0,.41.4h4.1a.4.4,0,0,0,.4-.4v-8.79c.06-2.55.86-4.95,3.38-4.95,2.72,0,2.55,3.95,2.55,3.95v9.79a.4.4,0,0,0,.4.4h3.82a.4.4,0,0,0,.4-.4V256c0-3-1.57-5.25-5.43-5.25" transform="translate(-158.78 -242.83)"/><path class="cls-1" d="M259,250.78a5.76,5.76,0,0,0-5.11,3.06v-2.21a.4.4,0,0,0-.41-.4h-4.1a.4.4,0,0,0-.4.4v16a.4.4,0,0,0,.4.4h4.1a.4.4,0,0,0,.41-.4v-8.76c0-2.56.84-5,3.38-5,2.72,0,2.54,3.95,2.54,3.95v9.79a.4.4,0,0,0,.41.4H264a.4.4,0,0,0,.41-.4V256c0-3-1.57-5.25-5.44-5.25" transform="translate(-158.78 -242.83)"/><path class="cls-1" d="M236.56,258.11c.14-3.25,1.07-5.76,2.84-5.76s2.53,2.51,2.63,5.76Zm2.76-7.34c-4.14,0-7.88,3.18-7.88,8.86s3.53,8.86,7.88,8.86c1.86,0,5.25-.78,6.57-3.27a.28.28,0,0,0-.1-.32h0a.27.27,0,0,0-.36,0,5.51,5.51,0,0,1-5.65,1.16c-2.71-1-3.16-4.79-3.23-6.39h9.82a.4.4,0,0,0,.4-.41c-.11-6.26-3-8.52-7.45-8.52" transform="translate(-158.78 -242.83)"/><path class="cls-1" d="M342.3,258.11c.13-3.25,1.07-5.76,2.84-5.76s2.53,2.51,2.62,5.76Zm2.76-7.34c-4.15,0-7.88,3.18-7.88,8.86s3.53,8.86,7.88,8.86c1.86,0,5.24-.78,6.57-3.27a.28.28,0,0,0-.1-.32h0a.27.27,0,0,0-.36,0,5.52,5.52,0,0,1-5.65,1.16c-2.71-1-3.16-4.79-3.23-6.39h9.82a.41.41,0,0,0,.4-.41c-.12-6.26-3-8.52-7.45-8.52" transform="translate(-158.78 -242.83)"/><path class="cls-1" d="M330.42,255v-3.37a.4.4,0,0,0-.4-.4h-3.88a.4.4,0,0,0-.4.4v16a.4.4,0,0,0,.4.4H330a.4.4,0,0,0,.4-.4v-8.82a.06.06,0,0,1,0,0,3.42,3.42,0,0,1,2.57-3.17h.06a4.54,4.54,0,0,1,2.26.28.38.38,0,0,0,.41,0l.08-.06a.3.3,0,0,0,.12-.22l.15-4.23a.39.39,0,0,0-.35-.41c-.93-.12-3.44,0-5.31,4.11" transform="translate(-158.78 -242.83)"/><path class="cls-1" d="M317.57,255v-3.4a.4.4,0,0,0-.4-.4h-3.92a.4.4,0,0,0-.41.4v16a.4.4,0,0,0,.41.4h3.92a.4.4,0,0,0,.4-.4v-8.75a3.47,3.47,0,0,1,2.59-3.28h0a4.54,4.54,0,0,1,2.26.28.4.4,0,0,0,.42,0l.08-.06a.27.27,0,0,0,.11-.22l.16-4.23a.4.4,0,0,0-.36-.41c-.93-.12-3.44,0-5.31,4.14" transform="translate(-158.78 -242.83)"/><path class="cls-1" d="M302,267c-2.22,0-3.37-2.15-3.37-7.33,0-4.76,1.46-7.34,3.37-7.34s3.37,1,3.37,7.34c0,5.17-1.51,7.33-3.37,7.33m0-16.37a8.67,8.67,0,0,0-8.57,8.92c0,6.31,3.84,8.92,8.57,8.92a8.74,8.74,0,0,0,8.56-8.92c0-5.91-3.83-8.92-8.56-8.92" transform="translate(-158.78 -242.83)"/><path class="cls-1" d="M221.11,266.35c-2.09,0-3.17-1.69-3.17-6.36,0-4.27,1.38-6.59,3.17-6.59s3.17.63,3.17,6.31c0,4.66-1.42,6.64-3.17,6.64m3.25-14c-1.22-1.42-2.86-1.57-4.68-1.57-3.81,0-6.74,4-6.74,8.92,0,6.31,3,8.68,6.74,8.68a5.45,5.45,0,0,0,4.68-1.93v1.16a.4.4,0,0,0,.4.4h4.1a.41.41,0,0,0,.41-.4v-24.4a.41.41,0,0,0-.41-.41h-4.1a.4.4,0,0,0-.4.41Z" transform="translate(-158.78 -242.83)"/><path class="cls-1" d="M282.59,266.09h-2a.4.4,0,0,1-.4-.4v-9.15h2.39c2.36,0,3.58,2.36,3.58,4.78,0,3.09-1.55,4.77-3.58,4.77M280.2,246h2.26c2,0,3.48,1.47,3.48,4.18,0,2.11-1.19,4.18-3.48,4.18H280.2Zm5.68,9.17c3-.47,5.15-2.17,5.15-5.51,0-4.15-3-5.66-7-5.65h-8.35a.4.4,0,0,0-.4.4V267.6a.4.4,0,0,0,.4.4h8.62c4.16,0,7.35-2.32,7.35-6.31s-2.48-6.05-5.78-6.5" transform="translate(-158.78 -242.83)"/><path class="cls-1" d="M179.75,244h-1.51a.44.44,0,0,0-.38.26L171,261.11l-6.3-16.59A.81.81,0,0,0,164,244h-4.78a.4.4,0,0,0-.37.55l8.82,22.92a.81.81,0,0,0,.75.52h2.05a.41.41,0,0,0,.37-.26l9.33-23.19a.41.41,0,0,0-.38-.55" transform="translate(-158.78 -242.83)"/></svg>