<svg id="Calque_1" data-name="Calque 1" xmlns="http://www.w3.org/2000/svg" viewBox="0 0 94.86 94.86"><defs><style>.cls-1{fill:#e89c03;}</style></defs><title>logo_fnac</title><path class="cls-1" d="M290.63,237.36s-6.4-.4-6.63,5.45V243c.22,5.85,6.63,5.46,6.63,5.46,2.89,0,4.46-.91,5.27-2.57h3.34l.95-5.94H295.9c-.81-1.65-2.38-2.59-5.27-2.57m-18.1,6c-.57.77-3.41.78-3.41.78-2.83.19-7,.06-7,2.55.07,2.65,3.52,2.35,5.13,2.28a5.82,5.82,0,0,0,4.67-2.14,4.36,4.36,0,0,0,.63-3.47c0-.09,0,0,0,0m-51.38-34.46-4,25.14h1.77a7.26,7.26,0,0,1,2.19-5.79s2.51-2.48,9.81-1.89c0,0,7.44.62,7.44,6H233.2s-.19-3-4.82-2.87c0,0-4.74-.1-4.33,4.52h14.34v2.37c.42-.64,1.51-1.72,4.27-2.46,0,0,11.77-2.6,13,5.8v11.81h-5.18v-9.8c-.77-5.28-6.65-4.31-6.65-4.31-4,.34-5.13,2.62-5.4,4.3v9.81H233.2v-14h-9.07v14H219v-14h-2.34l-8.43,53.2,81.89,13L298.59,250c-1.76,1.26-4.63,2.19-9.28,1.92a15.54,15.54,0,0,1-4.66-.79c-2.32-.86-6.08-3.26-6-7.91v-.58c-.06-4.61,3.72-7,6-7.88a16.55,16.55,0,0,1,4.66-.79c7-.4,9.95,1.92,11.2,3.93L303,221.9Zm51.65,42.66-.17-2v-.08c-2,2.54-7,2.39-7,2.39-9.3.17-9.16-4.94-9.16-4.94-.72-5.33,6.05-5.23,11.74-5.57s4.32-2.53,4.32-2.53c-.24-1.86-4.32-2-4.32-2-5.66-.45-5.71,3-5.71,3h-5.3s0-4.46,5.61-5.75c.05,0,3.33-1,9,0,0,0,6.41.87,6,7l.14,10.54Z" transform="translate(-208.18 -208.93)"/></svg>