<svg id="Calque_1" data-name="Calque 1" xmlns="http://www.w3.org/2000/svg" viewBox="0 0 309.53 95.6"><defs><style>.cls-1{fill:#e89c03;}.cls-2{fill:#fe1109;}</style></defs><title>logo_fnacVDB</title><path class="cls-1" d="M82.71,28.8s-6.4-.4-6.63,5.44v.18c.22,5.85,6.63,5.45,6.63,5.45,2.89,0,4.46-.91,5.27-2.57h3.34l1-5.93H88c-.81-1.66-2.38-2.59-5.27-2.57m-18.1,6c-.57.77-3.41.78-3.41.78-2.83.19-7,.06-7,2.55.08,2.64,3.52,2.35,5.13,2.28A5.82,5.82,0,0,0,64,38.3a4.36,4.36,0,0,0,.63-3.47c0-.09,0,0,0,0M13.23.37l-4,25.14H11a7.26,7.26,0,0,1,2.19-5.79s2.51-2.48,9.81-1.89c0,0,7.44.61,7.44,6H25.28s-.19-3-4.82-2.86c0,0-4.74-.1-4.33,4.52H30.47v2.37c.42-.65,1.51-1.72,4.27-2.47,0,0,11.77-2.59,13,5.81V43H42.52v-9.8c-.77-5.28-6.65-4.31-6.65-4.31-4,.34-5.13,2.62-5.4,4.3V43H25.28v-14H16.21V43H11v-14H8.69L.26,82.26l81.89,13,8.52-53.84c-1.76,1.26-4.63,2.19-9.28,1.92a16.2,16.2,0,0,1-4.66-.79c-2.32-.86-6.08-3.26-6-7.91V34c-.06-4.61,3.72-7,6-7.88a16.2,16.2,0,0,1,4.66-.79c7-.4,10,1.92,11.2,3.93l2.53-15.95ZM64.88,43l-.17-2V41c-2,2.55-7,2.4-7,2.4-9.3.17-9.16-4.95-9.16-4.95-.72-5.32,6.05-5.23,11.74-5.56s4.32-2.54,4.32-2.54c-.23-1.85-4.32-2-4.32-2-5.66-.45-5.71,3-5.71,3h-5.3s0-4.46,5.61-5.75c0,0,3.33-1,9,0,0,0,6.41.87,6,7L70,43Z"/><path class="cls-2" d="M141,41.17c-2.59,0-2-3.6-2-3.6a3.23,3.23,0,0,1,2.41-2.63,11.1,11.1,0,0,0,2.14-.89l0,3.83s.06,3.29-2.52,3.29m7.36-.47-.07-9.17c-.17-4.77-3.43-5.77-6.87-5.77a9.88,9.88,0,0,0-5.73,2.08.39.39,0,0,0-.06.57l.71.89a.41.41,0,0,0,.56.07,5.66,5.66,0,0,1,3.46-1,3,3,0,0,1,3.07,3.44c-.11,1.46-3.68,2-3.91,2h0c-5.18,1-5.44,3.83-5.44,5.47s1.15,4.17,4.84,4.17,4.67-2.4,4.67-2.4c1.57,3.8,5.38,2.12,6.33,1.62a.41.41,0,0,0,.22-.36v-.16a.41.41,0,0,0-.38-.4c-.52,0-1.37-.23-1.37-1.08"/><path class="cls-2" d="M161.94,25.76a5.79,5.79,0,0,0-5.12,3.06v-2.2a.39.39,0,0,0-.4-.4h-4.1a.39.39,0,0,0-.4.4v16a.39.39,0,0,0,.4.4h4.1a.39.39,0,0,0,.4-.4V33.8c.06-2.55.86-4.95,3.38-4.95,2.73,0,2.55,3.95,2.55,3.95v9.78a.4.4,0,0,0,.41.4H167a.39.39,0,0,0,.4-.4V31c0-3-1.57-5.26-5.43-5.26"/><path class="cls-2" d="M215.71,25.76a5.78,5.78,0,0,0-5.12,3.06v-2.2a.39.39,0,0,0-.4-.4h-4.11a.39.39,0,0,0-.4.4v16a.39.39,0,0,0,.4.4h4.11a.39.39,0,0,0,.4-.4V33.82c0-2.56.85-5,3.38-5,2.72,0,2.55,3.95,2.55,3.95v9.78a.39.39,0,0,0,.4.4h3.82a.39.39,0,0,0,.4-.4V31c0-3-1.57-5.26-5.43-5.26"/><path class="cls-2" d="M193.32,33.1c.13-3.25,1.06-5.77,2.83-5.77s2.54,2.52,2.63,5.77Zm2.75-7.34c-4.14,0-7.87,3.17-7.87,8.86s3.52,8.86,7.87,8.86c1.87,0,5.25-.78,6.57-3.27a.26.26,0,0,0-.09-.32h0a.29.29,0,0,0-.36,0,5.5,5.5,0,0,1-5.65,1.16c-2.7-1-3.16-4.79-3.23-6.39h9.82a.41.41,0,0,0,.41-.41c-.12-6.25-3-8.51-7.46-8.51"/><path class="cls-2" d="M299.05,33.1c.14-3.25,1.07-5.77,2.84-5.77s2.53,2.52,2.63,5.77Zm2.76-7.34c-4.14,0-7.88,3.17-7.88,8.86s3.53,8.86,7.88,8.86c1.86,0,5.25-.78,6.57-3.27a.28.28,0,0,0-.1-.32h0a.29.29,0,0,0-.36,0,5.52,5.52,0,0,1-5.65,1.16c-2.71-1-3.16-4.79-3.23-6.39h9.82a.4.4,0,0,0,.4-.41c-.11-6.25-3-8.51-7.45-8.51"/><path class="cls-2" d="M287.18,30V26.62a.41.41,0,0,0-.41-.41H282.9a.41.41,0,0,0-.41.41v16a.41.41,0,0,0,.41.41h3.87a.41.41,0,0,0,.41-.41V33.72a3.42,3.42,0,0,1,2.58-3.16l.05,0a4.58,4.58,0,0,1,2.26.29.38.38,0,0,0,.41,0l.08-.05a.31.31,0,0,0,.12-.22l.16-4.23a.42.42,0,0,0-.36-.42c-.93-.11-3.44,0-5.3,4.12"/><path class="cls-2" d="M274.32,30V26.62a.4.4,0,0,0-.4-.41H270a.4.4,0,0,0-.4.41v16a.39.39,0,0,0,.4.4h3.92a.4.4,0,0,0,.4-.4V33.83a3.48,3.48,0,0,1,2.59-3.27H277a4.42,4.42,0,0,1,2.26.28.38.38,0,0,0,.41,0l.08-.06a.28.28,0,0,0,.12-.21l.15-4.23a.4.4,0,0,0-.35-.42c-.94-.11-3.45,0-5.32,4.14"/><path class="cls-2" d="M258.77,42c-2.22,0-3.38-2.15-3.38-7.34,0-4.76,1.47-7.34,3.38-7.34s3.37,1,3.37,7.34c0,5.18-1.51,7.34-3.37,7.34m0-16.37a8.67,8.67,0,0,0-8.56,8.92c0,6.31,3.83,8.92,8.56,8.92a8.75,8.75,0,0,0,8.56-8.92c0-5.92-3.83-8.92-8.56-8.92"/><path class="cls-2" d="M177.86,41.33c-2.09,0-3.17-1.69-3.17-6.35,0-4.28,1.38-6.6,3.17-6.6S181,29,181,34.7c0,4.65-1.42,6.63-3.17,6.63m3.25-14c-1.21-1.42-2.86-1.56-4.67-1.56-3.82,0-6.74,4-6.74,8.92,0,6.31,3,8.68,6.74,8.68a5.46,5.46,0,0,0,4.67-1.93v1.15a.41.41,0,0,0,.4.41h4.11a.41.41,0,0,0,.4-.41V18.22a.4.4,0,0,0-.4-.4h-4.11a.4.4,0,0,0-.4.4Z"/><path class="cls-2" d="M239.35,41.08h-2a.4.4,0,0,1-.41-.4V31.53h2.4c2.35,0,3.57,2.36,3.57,4.77,0,3.1-1.55,4.78-3.57,4.78M237,21h2.27c2,0,3.47,1.47,3.47,4.18,0,2.11-1.19,4.17-3.47,4.17H237Zm5.69,9.17c3-.48,5.15-2.18,5.15-5.51,0-4.16-3-5.66-7-5.65h-8.35a.4.4,0,0,0-.41.4V42.58a.41.41,0,0,0,.41.41h8.62c4.15,0,7.34-2.32,7.34-6.31s-2.47-6.05-5.77-6.5"/><path class="cls-2" d="M136.5,19H135a.4.4,0,0,0-.38.26L127.77,36.1l-6.3-16.59a.81.81,0,0,0-.76-.52h-4.77a.41.41,0,0,0-.38.55l8.82,22.93a.81.81,0,0,0,.76.51h2a.4.4,0,0,0,.38-.26l9.32-23.19a.4.4,0,0,0-.38-.54"/></svg>